<svg width="30" height="30" viewBox="0 0 30 30" fill="none" xmlns="http://www.w3.org/2000/svg">
<mask id="mask0" mask-type="alpha" maskUnits="userSpaceOnUse" x="0" y="0" width="30" height="30">
<path fill-rule="evenodd" clip-rule="evenodd" d="M0.0351562 0.0912933H29.5378V29.4237H0.0351562V0.0912933Z" fill="white"/>
</mask>
<g mask="url(#mask0)">
<path fill-rule="evenodd" clip-rule="evenodd" d="M13.3582 14.7617L0.28277 27.8348C-0.0801142 28.2 -0.0801142 28.7879 0.28277 29.1508C0.463347 29.3337 0.702193 29.4237 0.94104 29.4237C1.17758 29.4237 1.41642 29.3337 1.597 29.1508L14.7693 15.9785L27.9439 29.1508C28.1239 29.3337 28.3628 29.4237 28.5993 29.4237C28.8382 29.4237 29.0753 29.3337 29.2576 29.1508C29.6205 28.7879 29.6205 28.2 29.2576 27.8348L16.1845 14.7617L29.2668 1.67711C29.6291 1.31423 29.6291 0.726341 29.2668 0.363457C28.9039 0.00057216 28.3155 0.00057216 27.9526 0.363457L14.7716 13.545L1.58777 0.363457C1.22489 0.00057216 0.637001 0.00057216 0.274117 0.363457C-0.088768 0.726341 -0.088768 1.31423 0.274117 1.67711L13.3582 14.7617Z" fill="white"/>
</g>
</svg>
