<svg width="30" height="30" viewBox="0 0 30 30" fill="none" xmlns="http://www.w3.org/2000/svg">
<mask id="mask0" mask-type="alpha" maskUnits="userSpaceOnUse" x="0" y="0" width="30" height="30">
<rect width="30" height="30" fill="white"/>
</mask>
<g mask="url(#mask0)">
<mask id="mask1" mask-type="alpha" maskUnits="userSpaceOnUse" x="0" y="6" width="30" height="18">
<path fill-rule="evenodd" clip-rule="evenodd" d="M0 6H30V23.9955H0V6Z" fill="white"/>
</mask>
<g mask="url(#mask1)">
<path fill-rule="evenodd" clip-rule="evenodd" d="M29.375 6H0.625C0.280156 6 0 6.26895 0 6.6C0 6.93135 0.280156 7.2 0.625 7.2H29.375C29.7202 7.2 30 6.93135 30 6.6C30 6.26895 29.7198 6 29.375 6Z" fill="white"/>
<path fill-rule="evenodd" clip-rule="evenodd" d="M29.375 14.4H0.625C0.280156 14.4 0 14.669 0 15C0 15.3311 0.280156 15.6 0.625 15.6H29.375C29.7202 15.6 30 15.3311 30 15C30 14.669 29.7198 14.4 29.375 14.4Z" fill="white"/>
<path fill-rule="evenodd" clip-rule="evenodd" d="M29.375 22.8H0.625C0.280156 22.8 0 23.0686 0 23.4C0 23.731 0.280156 24 0.625 24H29.375C29.7202 24 30 23.731 30 23.4C30 23.0686 29.7198 22.8 29.375 22.8Z" fill="white"/>
</g>
</g>
</svg>
