<svg width="20" height="20" viewBox="0 0 20 20" fill="none" xmlns="http://www.w3.org/2000/svg">
<rect opacity="0.01" width="20" height="20" fill="#D8D8D8"/>
<mask id="mask0" mask-type="alpha" maskUnits="userSpaceOnUse" x="0" y="0" width="20" height="20">
<rect width="20" height="20" fill="white"/>
</mask>
<g mask="url(#mask0)">
<mask id="mask1" mask-type="alpha" maskUnits="userSpaceOnUse" x="0" y="0" width="20" height="20">
<path fill-rule="evenodd" clip-rule="evenodd" d="M0 0H20V19.9969H0V0Z" fill="white"/>
</mask>
<g mask="url(#mask1)">
<path fill-rule="evenodd" clip-rule="evenodd" d="M13.75 0H6.25C2.79865 0 0 2.79865 0 6.25V13.75C0 17.2014 2.79865 20 6.25 20H13.75C17.2014 20 20 17.2014 20 13.75V6.25C20 2.79865 17.2014 0 13.75 0ZM18.125 13.75C18.125 16.1625 16.1625 18.125 13.75 18.125H6.25C3.8375 18.125 1.875 16.1625 1.875 13.75V6.25C1.875 3.8375 3.8375 1.875 6.25 1.875H13.75C16.1625 1.875 18.125 3.8375 18.125 6.25V13.75Z" fill="white"/>
</g>
<path fill-rule="evenodd" clip-rule="evenodd" d="M10 5C7.23875 5 5 7.23875 5 10C5 12.7612 7.23875 15 10 15C12.7612 15 15 12.7612 15 10C15 7.23875 12.7612 5 10 5ZM10 13.125C8.2776 13.125 6.875 11.7224 6.875 10C6.875 8.27615 8.2776 6.875 10 6.875C11.7224 6.875 13.125 8.27615 13.125 10C13.125 11.7224 11.7224 13.125 10 13.125Z" fill="white"/>
<path fill-rule="evenodd" clip-rule="evenodd" d="M16.0416 4.62504C16.0416 4.99286 15.7434 5.29135 15.3753 5.29135C15.0075 5.29135 14.709 4.99286 14.709 4.62504C14.709 4.25697 15.0075 3.95874 15.3753 3.95874C15.7434 3.95874 16.0416 4.25697 16.0416 4.62504Z" fill="white"/>
</g>
</svg>
